<?xml version="1.0" standalone="no"?>
<!DOCTYPE svg PUBLIC "-//W3C//DTD SVG 20010904//EN"
 "http://www.w3.org/TR/2001/REC-SVG-20010904/DTD/svg10.dtd">
<svg version="1.0" xmlns="http://www.w3.org/2000/svg"
 width="5000.000000pt" height="5000.000000pt" viewBox="0 0 5000.000000 5000.000000"
 preserveAspectRatio="xMidYMid meet">

<g transform="translate(0.000000,5000.000000) scale(0.100000,-0.100000)" fill="#FFFFFF" stroke="none">
<path d="M13900 41145 l0 -5965 2715 0 2715 0 0 810 0 810 -1627 2 -1628 3 -3
5153 -2 5152 -1085 0 -1085 0 0 -5965z"/>
<path d="M22300 47099 c-616 -45 -1083 -231 -1416 -563 -229 -230 -376 -504
-446 -833 l-23 -108 -3 -3852 -2 -3853 1085 0 1085 0 0 2440 0 2440 543 -2
542 -3 3 -3792 2 -3793 1085 0 1085 0 -3 5238 c-2 4888 -3 5243 -19 5327 -74
389 -258 677 -583 910 -106 76 -340 198 -478 249 -213 79 -461 140 -731 178
-142 20 -196 21 -881 24 -401 1 -782 -2 -845 -7z m1368 -2161 l-3 -1083 -540
0 -540 0 -3 1083 -2 1082 545 0 545 0 -2 -1082z"/>
<path d="M31240 40429 c-83 -14 -212 -62 -288 -107 -179 -107 -303 -282 -347
-494 -21 -97 -21 -304 0 -393 38 -166 156 -312 320 -397 50 -25 158 -70 240
-98 336 -116 410 -155 450 -235 42 -87 16 -200 -62 -264 -59 -48 -123 -66
-238 -65 -162 1 -311 60 -483 191 -40 31 -74 54 -76 52 -2 -2 -65 -119 -139
-259 l-136 -255 67 -44 c88 -57 247 -133 348 -164 171 -54 233 -62 469 -61
206 0 226 2 320 27 325 87 535 289 606 582 30 123 30 325 0 438 -54 205 -180
345 -413 458 -46 22 -166 66 -268 99 -202 65 -274 101 -316 155 -59 78 -36
195 51 255 47 32 138 60 195 60 103 -1 270 -62 371 -136 l48 -35 123 243 c68
134 124 248 126 254 9 33 -319 153 -502 184 -127 22 -361 26 -466 9z"/>
<path d="M26910 39135 l0 -1245 325 0 325 0 0 490 0 490 355 0 355 0 0 270 0
270 -355 0 -355 0 0 210 0 210 385 0 385 0 0 275 0 275 -710 0 -710 0 0 -1245z"/>
<path d="M28720 39135 l0 -1245 705 0 705 0 0 275 0 275 -382 2 -383 3 0 210
0 210 363 3 362 2 0 270 0 270 -362 2 -363 3 0 205 0 205 383 3 382 2 0 275 0
275 -705 0 -705 0 0 -1245z"/>
<path d="M32500 40105 l0 -275 265 0 265 0 0 -970 0 -970 325 0 325 0 0 970 0
970 265 0 265 0 0 275 0 275 -855 0 -855 0 0 -275z"/>
<path d="M34490 39135 l0 -1245 325 0 325 0 0 1245 0 1245 -325 0 -325 0 0
-1245z"/>
<path d="M35400 40374 c0 -4 925 -2210 1022 -2436 l20 -48 254 0 253 0 15 28
c17 33 1036 2450 1036 2457 0 3 -158 4 -351 3 l-350 -3 -295 -740 c-163 -407
-299 -743 -303 -748 -4 -4 -43 81 -86 190 -43 109 -176 447 -297 751 l-219
552 -350 0 c-192 0 -349 -3 -349 -6z"/>
<path d="M38751 40328 c-59 -150 -921 -2422 -921 -2429 0 -5 149 -8 343 -7
l342 3 75 215 75 215 459 0 459 0 18 -55 c11 -30 44 -128 75 -217 l56 -163
345 0 c272 0 344 3 341 13 -3 6 -216 567 -474 1244 l-469 1233 -351 0 -352 0
-21 -52z m518 -1108 l139 -395 -281 -3 c-154 -1 -282 -1 -284 1 -2 3 57 177
131 388 155 444 149 426 153 413 2 -5 66 -187 142 -404z"/>
<path d="M40700 39135 l0 -1245 710 0 710 0 0 275 0 275 -385 0 -385 0 0 970
0 970 -325 0 -325 0 0 -1245z"/>
<path d="M7940 29485 l0 -7325 1085 0 1085 0 0 3795 0 3795 540 0 540 0 0
-3795 0 -3795 2440 0 2440 0 0 815 0 815 -1355 0 -1355 0 0 2980 0 2980 815 0
815 0 0 545 0 545 -815 0 -815 0 2 813 3 812 1353 3 1352 2 0 810 0 810 -2440
0 -2440 0 0 -1625 0 -1625 -540 0 -540 0 0 2170 0 2170 1355 0 1355 0 0 815 0
815 -2440 0 -2440 0 0 -7325z"/>
<path d="M20410 30840 l0 -5970 1085 0 1085 0 0 5970 0 5970 -1085 0 -1085 0
0 -5970z"/>
<path d="M26920 35990 l0 -810 3255 0 3255 0 0 -6510 0 -6510 1085 0 1085 0 0
6505 0 6505 3255 0 3255 0 0 815 0 815 -7595 0 -7595 0 0 -810z"/>
<path d="M17160 28125 l0 -5965 2710 0 2710 0 0 815 0 815 -1625 0 -1625 0 0
5150 0 5150 -1085 0 -1085 0 0 -5965z"/>
<path d="M25510 34083 c-108 -8 -345 -46 -455 -73 -380 -91 -676 -249 -915
-489 -226 -226 -361 -470 -443 -798 l-22 -88 -3 -4490 c-3 -4914 -6 -4582 54
-4793 33 -118 129 -309 203 -409 303 -406 853 -666 1601 -760 128 -16 231 -18
900 -18 808 0 870 3 1150 56 794 150 1316 619 1482 1331 21 91 22 111 25 981
l4 887 -1086 0 -1085 0 0 -815 0 -815 -540 0 -540 0 0 4340 0 4340 540 0 540
0 0 -815 0 -815 1085 0 1086 0 -4 923 c-3 890 -4 925 -24 1017 -102 468 -381
799 -868 1031 -250 118 -511 195 -860 251 -136 21 -163 22 -960 23 -451 1
-840 0 -865 -2z"/>
<path d="M30170 28125 l0 -5965 1085 0 1085 0 0 5965 0 5965 -1085 0 -1085 0
0 -5965z"/>
<path d="M38570 34084 c-602 -48 -1062 -226 -1384 -534 -250 -240 -398 -508
-479 -870 l-21 -95 -3 -5212 -3 -5213 1085 0 1085 0 0 3795 0 3795 545 0 545
0 0 -3795 0 -3795 1085 0 1085 0 0 5179 c0 3554 -3 5211 -11 5282 -36 357
-149 601 -393 845 -307 306 -753 500 -1376 595 -140 22 -174 22 -930 24 -432
1 -805 0 -830 -1z m1368 -2161 l2 -1083 -545 0 -545 0 0 1078 c0 593 3 1082 7
1085 3 4 248 6 542 5 l536 -3 3 -1082z"/>
<path d="M14695 20640 c-3712 -3 -6751 -7 -6752 -8 -6 -4 -3 -1137 4 -1450 l6
-332 5980 -2 5980 -3 -5619 -2049 c-3090 -1127 -5620 -2050 -5622 -2051 -2 -2
606 -1677 611 -1681 1 -1 2530 921 5621 2048 3090 1127 5620 2047 5621 2046 2
-2 -2057 -1733 -4575 -3848 -2518 -2115 -4579 -3848 -4579 -3851 -1 -10 1139
-1364 1149 -1364 5 0 2055 1719 4556 3820 2500 2101 4562 3833 4581 3849 34
28 35 28 23 5 -9 -16 -5868 -10181 -5966 -10350 -4 -7 1545 -904 1550 -897 1
1 1345 2332 2985 5178 1641 2846 2987 5179 2991 5184 5 5 7 1 4 -10 -10 -43
-2064 -11747 -2064 -11762 0 -15 130 -40 876 -171 481 -84 877 -151 879 -149
2 2 468 2643 1034 5868 567 3226 1034 5878 1038 5894 6 21 286 -1542 1051
-5865 574 -3241 1044 -5895 1046 -5896 4 -4 1748 305 1754 311 3 3 -464 2654
-1037 5892 -573 3238 -1040 5888 -1039 5890 2 1 1348 -2322 2991 -5164 1643
-2842 2991 -5173 2996 -5181 7 -10 184 88 784 435 736 426 775 450 763 469
-38 59 -5977 10337 -5974 10340 2 1 2066 -1727 4588 -3841 3454 -2895 4587
-3840 4595 -3831 6 7 262 314 570 681 308 367 560 672 560 679 0 6 -2060 1737
-4577 3846 -2517 2110 -4580 3839 -4584 3844 -4 4 17 -1 47 -12 57 -20 11163
-4055 11189 -4065 12 -5 76 161 318 827 166 459 302 839 302 844 0 6 -1140
425 -2532 931 -1393 506 -3925 1425 -5626 2043 l-3093 1124 5986 6 c3292 4
5988 8 5990 10 2 2 1 403 -2 892 l-6 887 -10311 -2 c-5671 -1 -13348 -5
-17061 -8z"/>
</g>
</svg>
